{
	"patcher" : 	{
		"fileversion" : 1,
		"appversion" : 		{
			"major" : 8,
			"minor" : 1,
			"revision" : 2,
			"architecture" : "x64",
			"modernui" : 1
		}
,
		"classnamespace" : "box",
		"rect" : [ 34.0, 79.0, 1212.0, 687.0 ],
		"bglocked" : 0,
		"openinpresentation" : 1,
		"default_fontsize" : 12.0,
		"default_fontface" : 0,
		"default_fontname" : "Arial",
		"gridonopen" : 1,
		"gridsize" : [ 15.0, 15.0 ],
		"gridsnaponopen" : 1,
		"objectsnaponopen" : 1,
		"statusbarvisible" : 2,
		"toolbarvisible" : 1,
		"lefttoolbarpinned" : 0,
		"toptoolbarpinned" : 0,
		"righttoolbarpinned" : 0,
		"bottomtoolbarpinned" : 0,
		"toolbars_unpinned_last_save" : 0,
		"tallnewobj" : 0,
		"boxanimatetime" : 200,
		"enablehscroll" : 1,
		"enablevscroll" : 1,
		"devicewidth" : 0.0,
		"description" : "",
		"digest" : "",
		"tags" : "",
		"style" : "",
		"subpatcher_template" : "",
		"boxes" : [ 			{
				"box" : 				{
					"bgcolor" : [ 1.0, 1.0, 1.0, 1.0 ],
					"id" : "obj-17",
					"linecount" : 5,
					"maxclass" : "comment",
					"numinlets" : 1,
					"numoutlets" : 0,
					"patching_rect" : [ 120.0, 384.0, 150.0, 74.0 ],
					"presentation" : 1,
					"presentation_linecount" : 3,
					"presentation_rect" : [ 9.0, 118.0, 239.0, 47.0 ],
					"text" : "other portal's stream is pulled into floating window. Their movements make MIDI notes on your computer and vice versa"
				}

			}
, 			{
				"box" : 				{
					"id" : "obj-10",
					"maxclass" : "number",
					"numinlets" : 1,
					"numoutlets" : 2,
					"outlettype" : [ "", "bang" ],
					"parameter_enable" : 0,
					"patching_rect" : [ 862.0, 566.0, 50.0, 22.0 ]
				}

			}
, 			{
				"box" : 				{
					"id" : "obj-6",
					"maxclass" : "newobj",
					"numinlets" : 2,
					"numoutlets" : 0,
					"patching_rect" : [ 857.0, 605.0, 69.0, 22.0 ],
					"text" : "pgmout 1 1"
				}

			}
, 			{
				"box" : 				{
					"id" : "obj-4",
					"maxclass" : "newobj",
					"numinlets" : 3,
					"numoutlets" : 1,
					"outlettype" : [ "" ],
					"patching_rect" : [ 611.0, 518.0, 73.0, 22.0 ],
					"text" : "clip 125 500"
				}

			}
, 			{
				"box" : 				{
					"format" : 6,
					"id" : "obj-49",
					"maxclass" : "flonum",
					"numinlets" : 1,
					"numoutlets" : 2,
					"outlettype" : [ "", "bang" ],
					"parameter_enable" : 0,
					"patching_rect" : [ 611.0, 545.0, 50.0, 22.0 ]
				}

			}
, 			{
				"box" : 				{
					"id" : "obj-47",
					"maxclass" : "newobj",
					"numinlets" : 6,
					"numoutlets" : 1,
					"outlettype" : [ "" ],
					"patching_rect" : [ 600.5, 488.0, 117.0, 22.0 ],
					"text" : "scale 0. 0.3 500 125"
				}

			}
, 			{
				"box" : 				{
					"id" : "obj-42",
					"maxclass" : "newobj",
					"numinlets" : 3,
					"numoutlets" : 1,
					"outlettype" : [ "" ],
					"patching_rect" : [ 629.0, 605.0, 60.0, 22.0 ],
					"text" : "clip 0 127"
				}

			}
, 			{
				"box" : 				{
					"id" : "obj-41",
					"maxclass" : "newobj",
					"numinlets" : 2,
					"numoutlets" : 1,
					"outlettype" : [ "int" ],
					"patching_rect" : [ 549.0, 631.0, 32.0, 22.0 ],
					"text" : "+ 36"
				}

			}
, 			{
				"box" : 				{
					"id" : "obj-40",
					"maxclass" : "newobj",
					"numinlets" : 3,
					"numoutlets" : 0,
					"patching_rect" : [ 550.0, 693.0, 59.0, 22.0 ],
					"text" : "noteout 1"
				}

			}
, 			{
				"box" : 				{
					"format" : 6,
					"id" : "obj-39",
					"maxclass" : "flonum",
					"numinlets" : 1,
					"numoutlets" : 2,
					"outlettype" : [ "", "bang" ],
					"parameter_enable" : 0,
					"patching_rect" : [ 631.0, 631.0, 50.0, 22.0 ]
				}

			}
, 			{
				"box" : 				{
					"id" : "obj-35",
					"maxclass" : "newobj",
					"numinlets" : 6,
					"numoutlets" : 1,
					"outlettype" : [ "" ],
					"patching_rect" : [ 629.0, 575.0, 110.0, 22.0 ],
					"text" : "scale 0. 0.3 60 127"
				}

			}
, 			{
				"box" : 				{
					"id" : "obj-34",
					"maxclass" : "newobj",
					"numinlets" : 3,
					"numoutlets" : 2,
					"outlettype" : [ "float", "float" ],
					"patching_rect" : [ 550.0, 660.0, 181.0, 22.0 ],
					"text" : "makenote 120 500"
				}

			}
, 			{
				"box" : 				{
					"id" : "obj-33",
					"maxclass" : "newobj",
					"numinlets" : 2,
					"numoutlets" : 1,
					"outlettype" : [ "" ],
					"patching_rect" : [ 550.0, 575.0, 80.0, 22.0 ],
					"text" : "speedlim 500"
				}

			}
, 			{
				"box" : 				{
					"id" : "obj-32",
					"maxclass" : "newobj",
					"numinlets" : 3,
					"numoutlets" : 1,
					"outlettype" : [ "int" ],
					"patching_rect" : [ 550.0, 604.0, 65.0, 22.0 ],
					"text" : "drunk 48 4"
				}

			}
, 			{
				"box" : 				{
					"id" : "obj-31",
					"maxclass" : "newobj",
					"numinlets" : 2,
					"numoutlets" : 2,
					"outlettype" : [ "bang", "" ],
					"patching_rect" : [ 550.0, 545.0, 34.0, 22.0 ],
					"text" : "sel 1"
				}

			}
, 			{
				"box" : 				{
					"id" : "obj-30",
					"maxclass" : "newobj",
					"numinlets" : 1,
					"numoutlets" : 1,
					"outlettype" : [ "" ],
					"patching_rect" : [ 312.0, 533.0, 80.0, 22.0 ],
					"text" : "loadmess 0.1"
				}

			}
, 			{
				"box" : 				{
					"format" : 6,
					"id" : "obj-29",
					"maxclass" : "flonum",
					"numinlets" : 1,
					"numoutlets" : 2,
					"outlettype" : [ "", "bang" ],
					"parameter_enable" : 0,
					"patching_rect" : [ 312.0, 559.0, 50.0, 22.0 ]
				}

			}
, 			{
				"box" : 				{
					"id" : "obj-27",
					"maxclass" : "newobj",
					"numinlets" : 2,
					"numoutlets" : 1,
					"outlettype" : [ "int" ],
					"patching_rect" : [ 260.0, 588.0, 43.0, 22.0 ],
					"text" : ">= 0.1"
				}

			}
, 			{
				"box" : 				{
					"format" : 6,
					"id" : "obj-22",
					"maxclass" : "flonum",
					"numinlets" : 1,
					"numoutlets" : 2,
					"outlettype" : [ "", "bang" ],
					"parameter_enable" : 0,
					"patching_rect" : [ 260.0, 559.0, 50.0, 22.0 ]
				}

			}
, 			{
				"box" : 				{
					"id" : "obj-19",
					"maxclass" : "newobj",
					"numinlets" : 2,
					"numoutlets" : 1,
					"outlettype" : [ "float" ],
					"patching_rect" : [ 260.0, 533.0, 39.0, 22.0 ],
					"text" : "/ 320."
				}

			}
, 			{
				"box" : 				{
					"id" : "obj-16",
					"maxclass" : "newobj",
					"numinlets" : 1,
					"numoutlets" : 2,
					"outlettype" : [ "float", "float" ],
					"patching_rect" : [ 260.0, 504.0, 61.0, 22.0 ],
					"text" : "unpack f f"
				}

			}
, 			{
				"box" : 				{
					"id" : "obj-15",
					"maxclass" : "newobj",
					"numinlets" : 1,
					"numoutlets" : 3,
					"outlettype" : [ "", "", "" ],
					"patching_rect" : [ 229.0, 474.0, 81.0, 22.0 ],
					"text" : "sc.texture.3m"
				}

			}
, 			{
				"box" : 				{
					"id" : "obj-13",
					"maxclass" : "newobj",
					"numinlets" : 1,
					"numoutlets" : 3,
					"outlettype" : [ "", "jit_gl_texture", "" ],
					"patching_rect" : [ 201.0, 445.0, 113.0, 22.0 ],
					"text" : "sc.texture.presence",
					"varname" : "sc.texture.presence"
				}

			}
, 			{
				"box" : 				{
					"id" : "obj-12",
					"maxclass" : "newobj",
					"numinlets" : 1,
					"numoutlets" : 2,
					"outlettype" : [ "jit_gl_texture", "" ],
					"patching_rect" : [ 201.0, 416.0, 114.0, 22.0 ],
					"text" : "sc.texture.rgb2luma",
					"varname" : "sc.texture.rgb2luma"
				}

			}
, 			{
				"box" : 				{
					"id" : "obj-11",
					"maxclass" : "newobj",
					"numinlets" : 1,
					"numoutlets" : 2,
					"outlettype" : [ "jit_gl_texture", "" ],
					"patching_rect" : [ 327.916666666666742, 331.0, 70.0, 22.0 ],
					"text" : "jit.gl.texture"
				}

			}
, 			{
				"box" : 				{
					"id" : "obj-9",
					"maxclass" : "newobj",
					"numinlets" : 1,
					"numoutlets" : 2,
					"outlettype" : [ "jit_matrix", "" ],
					"patching_rect" : [ 166.0, 660.0, 201.0, 22.0 ],
					"text" : "jit.gl.videoplane @transform_reset 2"
				}

			}
, 			{
				"box" : 				{
					"color" : [ 0.976470588235294, 0.996078431372549, 0.0, 1.0 ],
					"id" : "obj-8",
					"maxclass" : "newobj",
					"numinlets" : 1,
					"numoutlets" : 0,
					"patching_rect" : [ 118.75, 57.0, 53.0, 22.0 ],
					"text" : "s render"
				}

			}
, 			{
				"box" : 				{
					"id" : "obj-2",
					"maxclass" : "live.text",
					"numinlets" : 1,
					"numoutlets" : 2,
					"outlettype" : [ "", "" ],
					"parameter_enable" : 1,
					"patching_rect" : [ 6.25, 4.0, 65.0, 21.0 ],
					"presentation" : 1,
					"presentation_rect" : [ 5.0, 7.0, 247.0, 21.0 ],
					"saved_attribute_attributes" : 					{
						"valueof" : 						{
							"parameter_enum" : [ "val1", "val2" ],
							"parameter_type" : 2,
							"parameter_longname" : "live.text",
							"parameter_mmax" : 1,
							"parameter_shortname" : "live.text"
						}

					}
,
					"text" : "Render",
					"texton" : "Render",
					"varname" : "live.text"
				}

			}
, 			{
				"box" : 				{
					"id" : "obj-1",
					"maxclass" : "newobj",
					"numinlets" : 1,
					"numoutlets" : 3,
					"outlettype" : [ "", "bang", "" ],
					"patching_rect" : [ 6.25, 30.0, 244.0, 22.0 ],
					"presentation" : 1,
					"presentation_rect" : [ 5.0, 33.0, 247.0, 22.0 ],
					"text" : "jit.world @floating 1 @fsaa 1 @fsmenubar 0"
				}

			}
, 			{
				"box" : 				{
					"id" : "obj-5",
					"maxclass" : "newobj",
					"numinlets" : 1,
					"numoutlets" : 1,
					"outlettype" : [ "" ],
					"patching_rect" : [ 112.0, 141.0, 70.0, 22.0 ],
					"text" : "loadmess 0"
				}

			}
, 			{
				"box" : 				{
					"id" : "obj-3",
					"maxclass" : "newobj",
					"numinlets" : 1,
					"numoutlets" : 2,
					"outlettype" : [ "jit_matrix", "" ],
					"patching_rect" : [ 327.916666666666742, 302.0, 60.0, 22.0 ],
					"text" : "jit.change"
				}

			}
, 			{
				"box" : 				{
					"id" : "obj-101",
					"maxclass" : "comment",
					"numinlets" : 1,
					"numoutlets" : 0,
					"patching_rect" : [ 112.0, 165.0, 111.0, 20.0 ],
					"presentation" : 1,
					"presentation_rect" : [ 178.0, 63.0, 111.0, 20.0 ],
					"text" : "Grab Video Stream"
				}

			}
, 			{
				"box" : 				{
					"id" : "obj-100",
					"maxclass" : "newobj",
					"numinlets" : 2,
					"numoutlets" : 1,
					"outlettype" : [ "int" ],
					"patching_rect" : [ 112.0, 215.0, 29.5, 22.0 ],
					"text" : "+ 1"
				}

			}
, 			{
				"box" : 				{
					"id" : "obj-99",
					"maxclass" : "live.tab",
					"num_lines_patching" : 1,
					"num_lines_presentation" : 2,
					"numinlets" : 1,
					"numoutlets" : 3,
					"outlettype" : [ "", "", "float" ],
					"parameter_enable" : 1,
					"patching_rect" : [ 112.0, 188.0, 100.0, 20.0 ],
					"presentation" : 1,
					"presentation_rect" : [ 5.0, 63.0, 171.0, 42.0 ],
					"saved_attribute_attributes" : 					{
						"valueof" : 						{
							"parameter_enum" : [ "Syphoner", "Desktop" ],
							"parameter_type" : 2,
							"parameter_unitstyle" : 0,
							"parameter_longname" : "live.tab",
							"parameter_mmax" : 1,
							"parameter_shortname" : "live.tab"
						}

					}
,
					"varname" : "live.tab"
				}

			}
, 			{
				"box" : 				{
					"id" : "obj-98",
					"maxclass" : "newobj",
					"numinlets" : 1,
					"numoutlets" : 1,
					"outlettype" : [ "" ],
					"patching_rect" : [ 376.583333333333428, 251.0, 75.0, 22.0 ],
					"text" : "prepend dim"
				}

			}
, 			{
				"box" : 				{
					"id" : "obj-97",
					"maxclass" : "newobj",
					"numinlets" : 2,
					"numoutlets" : 1,
					"outlettype" : [ "" ],
					"patching_rect" : [ 376.583333333333428, 227.0, 46.0, 22.0 ],
					"text" : "pack i i"
				}

			}
, 			{
				"box" : 				{
					"id" : "obj-95",
					"maxclass" : "newobj",
					"numinlets" : 1,
					"numoutlets" : 1,
					"outlettype" : [ "bang" ],
					"patching_rect" : [ 341.916666666666742, 149.0, 58.0, 22.0 ],
					"text" : "loadbang"
				}

			}
, 			{
				"box" : 				{
					"id" : "obj-87",
					"maxclass" : "newobj",
					"numinlets" : 1,
					"numoutlets" : 4,
					"outlettype" : [ "int", "int", "int", "int" ],
					"patching_rect" : [ 341.916666666666742, 202.0, 71.0, 22.0 ],
					"text" : "unpack i i i i"
				}

			}
, 			{
				"box" : 				{
					"id" : "obj-36",
					"maxclass" : "newobj",
					"numinlets" : 1,
					"numoutlets" : 2,
					"outlettype" : [ "list", "list" ],
					"patching_rect" : [ 341.916666666666742, 175.0, 66.0, 22.0 ],
					"text" : "screensize"
				}

			}
, 			{
				"box" : 				{
					"id" : "obj-26",
					"maxclass" : "newobj",
					"numinlets" : 1,
					"numoutlets" : 2,
					"outlettype" : [ "jit_matrix", "" ],
					"patching_rect" : [ 327.916666666666742, 275.0, 153.0, 22.0 ],
					"text" : "jit.desktop 4 char 1280 800"
				}

			}
, 			{
				"box" : 				{
					"id" : "obj-25",
					"maxclass" : "newobj",
					"numinlets" : 2,
					"numoutlets" : 2,
					"outlettype" : [ "", "" ],
					"patching_rect" : [ 112.0, 245.0, 234.916666666666742, 22.0 ],
					"text" : "gate 2"
				}

			}
, 			{
				"box" : 				{
					"color" : [ 0.976470588235294, 0.996078431372549, 0.0, 1.0 ],
					"id" : "obj-23",
					"maxclass" : "newobj",
					"numinlets" : 0,
					"numoutlets" : 1,
					"outlettype" : [ "" ],
					"patching_rect" : [ 275.75, 215.0, 51.0, 22.0 ],
					"text" : "r render"
				}

			}
, 			{
				"box" : 				{
					"id" : "obj-21",
					"maxclass" : "newobj",
					"numinlets" : 3,
					"numoutlets" : 1,
					"outlettype" : [ "" ],
					"patching_rect" : [ 166.0, 365.0, 52.0, 22.0 ],
					"text" : "switch 2"
				}

			}
, 			{
				"box" : 				{
					"id" : "obj-14",
					"maxclass" : "newobj",
					"numinlets" : 1,
					"numoutlets" : 2,
					"outlettype" : [ "jit_gl_texture", "" ],
					"patching_rect" : [ 112.0, 275.0, 100.0, 22.0 ],
					"text" : "jit.gl.syphonclient"
				}

			}
 ],
		"lines" : [ 			{
				"patchline" : 				{
					"destination" : [ "obj-8", 0 ],
					"midpoints" : [ 128.25, 55.0, 128.25, 55.0 ],
					"source" : [ "obj-1", 1 ]
				}

			}
, 			{
				"patchline" : 				{
					"destination" : [ "obj-6", 0 ],
					"source" : [ "obj-10", 0 ]
				}

			}
, 			{
				"patchline" : 				{
					"destination" : [ "obj-21", 0 ],
					"order" : 0,
					"source" : [ "obj-100", 0 ]
				}

			}
, 			{
				"patchline" : 				{
					"destination" : [ "obj-25", 0 ],
					"order" : 1,
					"source" : [ "obj-100", 0 ]
				}

			}
, 			{
				"patchline" : 				{
					"destination" : [ "obj-21", 2 ],
					"source" : [ "obj-11", 0 ]
				}

			}
, 			{
				"patchline" : 				{
					"destination" : [ "obj-13", 0 ],
					"source" : [ "obj-12", 0 ]
				}

			}
, 			{
				"patchline" : 				{
					"destination" : [ "obj-15", 0 ],
					"source" : [ "obj-13", 0 ]
				}

			}
, 			{
				"patchline" : 				{
					"destination" : [ "obj-21", 1 ],
					"source" : [ "obj-14", 0 ]
				}

			}
, 			{
				"patchline" : 				{
					"destination" : [ "obj-16", 0 ],
					"source" : [ "obj-15", 1 ]
				}

			}
, 			{
				"patchline" : 				{
					"destination" : [ "obj-19", 0 ],
					"source" : [ "obj-16", 1 ]
				}

			}
, 			{
				"patchline" : 				{
					"destination" : [ "obj-22", 0 ],
					"source" : [ "obj-19", 0 ]
				}

			}
, 			{
				"patchline" : 				{
					"destination" : [ "obj-1", 0 ],
					"source" : [ "obj-2", 0 ]
				}

			}
, 			{
				"patchline" : 				{
					"destination" : [ "obj-12", 0 ],
					"order" : 0,
					"source" : [ "obj-21", 0 ]
				}

			}
, 			{
				"patchline" : 				{
					"destination" : [ "obj-9", 0 ],
					"order" : 1,
					"source" : [ "obj-21", 0 ]
				}

			}
, 			{
				"patchline" : 				{
					"destination" : [ "obj-27", 0 ],
					"order" : 2,
					"source" : [ "obj-22", 0 ]
				}

			}
, 			{
				"patchline" : 				{
					"destination" : [ "obj-35", 0 ],
					"order" : 0,
					"source" : [ "obj-22", 0 ]
				}

			}
, 			{
				"patchline" : 				{
					"destination" : [ "obj-47", 0 ],
					"order" : 1,
					"source" : [ "obj-22", 0 ]
				}

			}
, 			{
				"patchline" : 				{
					"destination" : [ "obj-25", 1 ],
					"source" : [ "obj-23", 0 ]
				}

			}
, 			{
				"patchline" : 				{
					"destination" : [ "obj-14", 0 ],
					"source" : [ "obj-25", 0 ]
				}

			}
, 			{
				"patchline" : 				{
					"destination" : [ "obj-26", 0 ],
					"source" : [ "obj-25", 1 ]
				}

			}
, 			{
				"patchline" : 				{
					"destination" : [ "obj-3", 0 ],
					"source" : [ "obj-26", 0 ]
				}

			}
, 			{
				"patchline" : 				{
					"destination" : [ "obj-31", 0 ],
					"source" : [ "obj-27", 0 ]
				}

			}
, 			{
				"patchline" : 				{
					"destination" : [ "obj-27", 1 ],
					"source" : [ "obj-29", 0 ]
				}

			}
, 			{
				"patchline" : 				{
					"destination" : [ "obj-11", 0 ],
					"source" : [ "obj-3", 0 ]
				}

			}
, 			{
				"patchline" : 				{
					"destination" : [ "obj-29", 0 ],
					"source" : [ "obj-30", 0 ]
				}

			}
, 			{
				"patchline" : 				{
					"destination" : [ "obj-33", 0 ],
					"source" : [ "obj-31", 0 ]
				}

			}
, 			{
				"patchline" : 				{
					"destination" : [ "obj-41", 0 ],
					"source" : [ "obj-32", 0 ]
				}

			}
, 			{
				"patchline" : 				{
					"destination" : [ "obj-32", 0 ],
					"source" : [ "obj-33", 0 ]
				}

			}
, 			{
				"patchline" : 				{
					"destination" : [ "obj-40", 1 ],
					"source" : [ "obj-34", 1 ]
				}

			}
, 			{
				"patchline" : 				{
					"destination" : [ "obj-40", 0 ],
					"source" : [ "obj-34", 0 ]
				}

			}
, 			{
				"patchline" : 				{
					"destination" : [ "obj-42", 0 ],
					"source" : [ "obj-35", 0 ]
				}

			}
, 			{
				"patchline" : 				{
					"destination" : [ "obj-87", 0 ],
					"source" : [ "obj-36", 0 ]
				}

			}
, 			{
				"patchline" : 				{
					"destination" : [ "obj-34", 1 ],
					"source" : [ "obj-39", 0 ]
				}

			}
, 			{
				"patchline" : 				{
					"destination" : [ "obj-49", 0 ],
					"source" : [ "obj-4", 0 ]
				}

			}
, 			{
				"patchline" : 				{
					"destination" : [ "obj-34", 0 ],
					"source" : [ "obj-41", 0 ]
				}

			}
, 			{
				"patchline" : 				{
					"destination" : [ "obj-39", 0 ],
					"source" : [ "obj-42", 0 ]
				}

			}
, 			{
				"patchline" : 				{
					"destination" : [ "obj-4", 0 ],
					"source" : [ "obj-47", 0 ]
				}

			}
, 			{
				"patchline" : 				{
					"destination" : [ "obj-33", 1 ],
					"source" : [ "obj-49", 0 ]
				}

			}
, 			{
				"patchline" : 				{
					"destination" : [ "obj-99", 0 ],
					"source" : [ "obj-5", 0 ]
				}

			}
, 			{
				"patchline" : 				{
					"destination" : [ "obj-97", 1 ],
					"source" : [ "obj-87", 3 ]
				}

			}
, 			{
				"patchline" : 				{
					"destination" : [ "obj-97", 0 ],
					"source" : [ "obj-87", 2 ]
				}

			}
, 			{
				"patchline" : 				{
					"destination" : [ "obj-36", 0 ],
					"source" : [ "obj-95", 0 ]
				}

			}
, 			{
				"patchline" : 				{
					"destination" : [ "obj-98", 0 ],
					"source" : [ "obj-97", 0 ]
				}

			}
, 			{
				"patchline" : 				{
					"destination" : [ "obj-26", 0 ],
					"source" : [ "obj-98", 0 ]
				}

			}
, 			{
				"patchline" : 				{
					"destination" : [ "obj-100", 0 ],
					"source" : [ "obj-99", 0 ]
				}

			}
 ],
		"parameters" : 		{
			"obj-99" : [ "live.tab", "live.tab", 0 ],
			"obj-2" : [ "live.text", "live.text", 0 ],
			"parameterbanks" : 			{

			}

		}
,
		"dependency_cache" : [ 			{
				"name" : "sc.texture.rgb2luma.maxpat",
				"bootpath" : "~/Documents/Max 7/Packages/SC/patchers/video/texture",
				"patcherrelativepath" : "../../../../Users/andrewrobinson/Documents/Max 7/Packages/SC/patchers/video/texture",
				"type" : "JSON",
				"implicit" : 1
			}
, 			{
				"name" : "sc.rgb2luma.genjit",
				"bootpath" : "~/Documents/Max 7/Packages/SC/code",
				"patcherrelativepath" : "../../../../Users/andrewrobinson/Documents/Max 7/Packages/SC/code",
				"type" : "gJIT",
				"implicit" : 1
			}
, 			{
				"name" : "bypass_dummy.genjit",
				"bootpath" : "~/Desktop/GRAD/Phenomina (Feedback Game)/AR Metagame Phenomina/Media-Choreography-Lower-Division/Unit 1/Unit 1 Source/code",
				"patcherrelativepath" : "../../../../Users/andrewrobinson/Desktop/GRAD/Phenomina (Feedback Game)/AR Metagame Phenomina/Media-Choreography-Lower-Division/Unit 1/Unit 1 Source/code",
				"type" : "gJIT",
				"implicit" : 1
			}
, 			{
				"name" : "thru.maxpat",
				"bootpath" : "C74:/patchers/m4l/Pluggo for Live resources/patches",
				"type" : "JSON",
				"implicit" : 1
			}
, 			{
				"name" : "sc.texture.presence.maxpat",
				"bootpath" : "~/Desktop/Media-Choreography-Lower-Division/Unit 5/Application Projects/Color Trail/patchers",
				"patcherrelativepath" : "../../../../Users/andrewrobinson/Desktop/Media-Choreography-Lower-Division/Unit 5/Application Projects/Color Trail/patchers",
				"type" : "JSON",
				"implicit" : 1
			}
, 			{
				"name" : "sc.texture.3m.maxpat",
				"bootpath" : "~/Documents/Max 7/Packages/SC/patchers/utilities",
				"patcherrelativepath" : "../../../../Users/andrewrobinson/Documents/Max 7/Packages/SC/patchers/utilities",
				"type" : "JSON",
				"implicit" : 1
			}
, 			{
				"name" : "jit.gl.syphonclient.mxo",
				"type" : "iLaX"
			}
 ],
		"autosave" : 0
	}

}
